<mxfile host="Electron" modified="2024-05-03T23:43:23.498Z" agent="Mozilla/5.0 (Windows NT 10.0; Win64; x64) AppleWebKit/537.36 (KHTML, like Gecko) draw.io/24.2.5 Chrome/120.0.6099.109 Electron/28.1.0 Safari/537.36" etag="0zifb8qUMannnIAqqfDG" version="24.2.5" type="device">
  <diagram name="Страница — 1" id="TK3PtmwGy54P3Zn6ZufO">
    <mxGraphModel dx="1674" dy="844" grid="1" gridSize="10" guides="1" tooltips="1" connect="1" arrows="1" fold="1" page="1" pageScale="1" pageWidth="827" pageHeight="1169" math="0" shadow="0">
      <root>
        <mxCell id="0" />
        <mxCell id="1" parent="0" />
        <mxCell id="SB1bO-JmTnspfeFLnjL6-2" style="edgeStyle=orthogonalEdgeStyle;rounded=0;orthogonalLoop=1;jettySize=auto;html=1;exitX=0.5;exitY=1;exitDx=0;exitDy=0;entryX=0.5;entryY=0;entryDx=0;entryDy=0;" edge="1" parent="1" source="SB1bO-JmTnspfeFLnjL6-3" target="SB1bO-JmTnspfeFLnjL6-24">
          <mxGeometry relative="1" as="geometry" />
        </mxCell>
        <mxCell id="SB1bO-JmTnspfeFLnjL6-3" value="начало&lt;div&gt;AddAfter&lt;/div&gt;" style="rounded=1;whiteSpace=wrap;html=1;arcSize=50;" vertex="1" parent="1">
          <mxGeometry x="4" y="20" width="100" height="50" as="geometry" />
        </mxCell>
        <mxCell id="SB1bO-JmTnspfeFLnjL6-4" style="edgeStyle=orthogonalEdgeStyle;rounded=0;orthogonalLoop=1;jettySize=auto;html=1;exitX=0.5;exitY=1;exitDx=0;exitDy=0;exitPerimeter=0;entryX=0.5;entryY=0;entryDx=0;entryDy=0;" edge="1" parent="1" source="SB1bO-JmTnspfeFLnjL6-5" target="SB1bO-JmTnspfeFLnjL6-17">
          <mxGeometry relative="1" as="geometry">
            <mxPoint x="54" y="230" as="targetPoint" />
          </mxGeometry>
        </mxCell>
        <mxCell id="SB1bO-JmTnspfeFLnjL6-5" value="цикл 1&lt;div&gt;i = n-1&lt;/div&gt;" style="strokeWidth=2;html=1;shape=mxgraph.flowchart.loop_limit;whiteSpace=wrap;" vertex="1" parent="1">
          <mxGeometry x="4" y="160" width="100" height="50" as="geometry" />
        </mxCell>
        <mxCell id="SB1bO-JmTnspfeFLnjL6-6" style="edgeStyle=orthogonalEdgeStyle;rounded=0;orthogonalLoop=1;jettySize=auto;html=1;exitX=0.5;exitY=0;exitDx=0;exitDy=0;exitPerimeter=0;entryX=0.5;entryY=0;entryDx=0;entryDy=0;" edge="1" parent="1" source="SB1bO-JmTnspfeFLnjL6-7" target="SB1bO-JmTnspfeFLnjL6-28">
          <mxGeometry relative="1" as="geometry" />
        </mxCell>
        <mxCell id="SB1bO-JmTnspfeFLnjL6-7" value="" style="strokeWidth=2;html=1;shape=mxgraph.flowchart.loop_limit;whiteSpace=wrap;rotation=-180;" vertex="1" parent="1">
          <mxGeometry x="4" y="470" width="100" height="50" as="geometry" />
        </mxCell>
        <mxCell id="SB1bO-JmTnspfeFLnjL6-8" value="цикл 1" style="text;html=1;strokeColor=none;fillColor=none;align=center;verticalAlign=middle;whiteSpace=wrap;rounded=0;" vertex="1" parent="1">
          <mxGeometry x="24" y="480" width="60" height="30" as="geometry" />
        </mxCell>
        <mxCell id="SB1bO-JmTnspfeFLnjL6-9" value="" style="strokeWidth=2;html=1;shape=mxgraph.flowchart.annotation_1;align=left;pointerEvents=1;" vertex="1" parent="1">
          <mxGeometry x="194" y="235" width="20" height="50" as="geometry" />
        </mxCell>
        <mxCell id="SB1bO-JmTnspfeFLnjL6-10" value="" style="endArrow=none;dashed=1;html=1;rounded=0;exitX=1;exitY=0.5;exitDx=0;exitDy=0;entryX=0;entryY=0.5;entryDx=0;entryDy=0;entryPerimeter=0;" edge="1" parent="1" target="SB1bO-JmTnspfeFLnjL6-9">
          <mxGeometry width="50" height="50" relative="1" as="geometry">
            <mxPoint x="174" y="260" as="sourcePoint" />
            <mxPoint x="384" y="315" as="targetPoint" />
          </mxGeometry>
        </mxCell>
        <mxCell id="SB1bO-JmTnspfeFLnjL6-11" value="maxint - максимальное значение integer" style="text;html=1;align=center;verticalAlign=middle;whiteSpace=wrap;rounded=0;" vertex="1" parent="1">
          <mxGeometry x="198" y="245" width="136" height="30" as="geometry" />
        </mxCell>
        <mxCell id="SB1bO-JmTnspfeFLnjL6-12" value="" style="strokeWidth=2;html=1;shape=mxgraph.flowchart.annotation_1;align=left;pointerEvents=1;" vertex="1" parent="1">
          <mxGeometry x="124" y="160" width="20" height="50" as="geometry" />
        </mxCell>
        <mxCell id="SB1bO-JmTnspfeFLnjL6-13" value="" style="endArrow=none;dashed=1;html=1;rounded=0;exitX=1;exitY=0.5;exitDx=0;exitDy=0;entryX=0;entryY=0.5;entryDx=0;entryDy=0;entryPerimeter=0;exitPerimeter=0;" edge="1" parent="1" source="SB1bO-JmTnspfeFLnjL6-5" target="SB1bO-JmTnspfeFLnjL6-12">
          <mxGeometry width="50" height="50" relative="1" as="geometry">
            <mxPoint x="154" y="185" as="sourcePoint" />
            <mxPoint x="254" y="260" as="targetPoint" />
          </mxGeometry>
        </mxCell>
        <mxCell id="SB1bO-JmTnspfeFLnjL6-14" value="n = 10, это константа" style="text;html=1;align=center;verticalAlign=middle;whiteSpace=wrap;rounded=0;" vertex="1" parent="1">
          <mxGeometry x="128" y="170" width="76" height="30" as="geometry" />
        </mxCell>
        <mxCell id="SB1bO-JmTnspfeFLnjL6-15" style="edgeStyle=orthogonalEdgeStyle;rounded=0;orthogonalLoop=1;jettySize=auto;html=1;exitX=1;exitY=0.5;exitDx=0;exitDy=0;entryX=0.5;entryY=0;entryDx=0;entryDy=0;" edge="1" parent="1" source="SB1bO-JmTnspfeFLnjL6-17" target="SB1bO-JmTnspfeFLnjL6-21">
          <mxGeometry relative="1" as="geometry" />
        </mxCell>
        <mxCell id="SB1bO-JmTnspfeFLnjL6-16" style="edgeStyle=orthogonalEdgeStyle;rounded=0;orthogonalLoop=1;jettySize=auto;html=1;exitX=0.5;exitY=1;exitDx=0;exitDy=0;" edge="1" parent="1" source="SB1bO-JmTnspfeFLnjL6-17" target="SB1bO-JmTnspfeFLnjL6-22">
          <mxGeometry relative="1" as="geometry" />
        </mxCell>
        <mxCell id="SB1bO-JmTnspfeFLnjL6-17" value="MaxInt&amp;nbsp;&lt;span style=&quot;font-family: arial, verdana; font-size: 13px; text-align: start; background-color: rgb(255, 255, 255);&quot;&gt;≠&amp;nbsp;&lt;/span&gt;A[i]" style="rhombus;whiteSpace=wrap;html=1;" vertex="1" parent="1">
          <mxGeometry x="4" y="230" width="100" height="60" as="geometry" />
        </mxCell>
        <mxCell id="SB1bO-JmTnspfeFLnjL6-18" value="да" style="text;html=1;strokeColor=none;fillColor=none;align=center;verticalAlign=middle;whiteSpace=wrap;rounded=0;" vertex="1" parent="1">
          <mxGeometry x="80.5" y="230" width="60" height="30" as="geometry" />
        </mxCell>
        <mxCell id="SB1bO-JmTnspfeFLnjL6-19" value="нет" style="text;html=1;strokeColor=none;fillColor=none;align=center;verticalAlign=middle;whiteSpace=wrap;rounded=0;" vertex="1" parent="1">
          <mxGeometry x="44" y="280" width="60" height="30" as="geometry" />
        </mxCell>
        <mxCell id="SB1bO-JmTnspfeFLnjL6-20" style="edgeStyle=orthogonalEdgeStyle;rounded=0;orthogonalLoop=1;jettySize=auto;html=1;exitX=0.5;exitY=1;exitDx=0;exitDy=0;" edge="1" parent="1" source="SB1bO-JmTnspfeFLnjL6-21">
          <mxGeometry relative="1" as="geometry">
            <mxPoint x="54" y="380" as="targetPoint" />
            <Array as="points">
              <mxPoint x="174" y="380" />
            </Array>
          </mxGeometry>
        </mxCell>
        <mxCell id="SB1bO-JmTnspfeFLnjL6-21" value="k=k+1" style="rounded=0;whiteSpace=wrap;html=1;" vertex="1" parent="1">
          <mxGeometry x="124" y="310" width="100" height="50" as="geometry" />
        </mxCell>
        <mxCell id="SB1bO-JmTnspfeFLnjL6-22" value="i = i + 1" style="rounded=0;whiteSpace=wrap;html=1;" vertex="1" parent="1">
          <mxGeometry x="4" y="400" width="100" height="50" as="geometry" />
        </mxCell>
        <mxCell id="SB1bO-JmTnspfeFLnjL6-23" style="edgeStyle=orthogonalEdgeStyle;rounded=0;orthogonalLoop=1;jettySize=auto;html=1;exitX=0.5;exitY=1;exitDx=0;exitDy=0;entryX=0.5;entryY=1;entryDx=0;entryDy=0;entryPerimeter=0;" edge="1" parent="1" source="SB1bO-JmTnspfeFLnjL6-22" target="SB1bO-JmTnspfeFLnjL6-7">
          <mxGeometry relative="1" as="geometry" />
        </mxCell>
        <mxCell id="SB1bO-JmTnspfeFLnjL6-24" value="i = 0" style="rounded=0;whiteSpace=wrap;html=1;" vertex="1" parent="1">
          <mxGeometry x="4" y="90" width="100" height="50" as="geometry" />
        </mxCell>
        <mxCell id="SB1bO-JmTnspfeFLnjL6-25" style="edgeStyle=orthogonalEdgeStyle;rounded=0;orthogonalLoop=1;jettySize=auto;html=1;exitX=0.5;exitY=1;exitDx=0;exitDy=0;entryX=0.5;entryY=0;entryDx=0;entryDy=0;entryPerimeter=0;" edge="1" parent="1" source="SB1bO-JmTnspfeFLnjL6-24" target="SB1bO-JmTnspfeFLnjL6-5">
          <mxGeometry relative="1" as="geometry" />
        </mxCell>
        <mxCell id="SB1bO-JmTnspfeFLnjL6-26" style="edgeStyle=orthogonalEdgeStyle;rounded=0;orthogonalLoop=1;jettySize=auto;html=1;exitX=1;exitY=0.5;exitDx=0;exitDy=0;entryX=0.5;entryY=0;entryDx=0;entryDy=0;" edge="1" parent="1" source="SB1bO-JmTnspfeFLnjL6-28" target="SB1bO-JmTnspfeFLnjL6-31">
          <mxGeometry relative="1" as="geometry" />
        </mxCell>
        <mxCell id="SB1bO-JmTnspfeFLnjL6-36" style="edgeStyle=orthogonalEdgeStyle;rounded=0;orthogonalLoop=1;jettySize=auto;html=1;exitX=0.5;exitY=1;exitDx=0;exitDy=0;entryX=0.5;entryY=0;entryDx=0;entryDy=0;" edge="1" parent="1" source="SB1bO-JmTnspfeFLnjL6-28" target="SB1bO-JmTnspfeFLnjL6-33">
          <mxGeometry relative="1" as="geometry" />
        </mxCell>
        <mxCell id="SB1bO-JmTnspfeFLnjL6-28" value="k = n" style="rhombus;whiteSpace=wrap;html=1;" vertex="1" parent="1">
          <mxGeometry x="4" y="540" width="100" height="60" as="geometry" />
        </mxCell>
        <mxCell id="SB1bO-JmTnspfeFLnjL6-29" value="да" style="text;html=1;strokeColor=none;fillColor=none;align=center;verticalAlign=middle;whiteSpace=wrap;rounded=0;" vertex="1" parent="1">
          <mxGeometry x="77" y="540" width="60" height="30" as="geometry" />
        </mxCell>
        <mxCell id="SB1bO-JmTnspfeFLnjL6-30" value="нет" style="text;html=1;strokeColor=none;fillColor=none;align=center;verticalAlign=middle;whiteSpace=wrap;rounded=0;" vertex="1" parent="1">
          <mxGeometry x="44" y="590" width="60" height="30" as="geometry" />
        </mxCell>
        <mxCell id="SB1bO-JmTnspfeFLnjL6-67" style="edgeStyle=orthogonalEdgeStyle;rounded=0;orthogonalLoop=1;jettySize=auto;html=1;exitX=0.5;exitY=1;exitDx=0;exitDy=0;" edge="1" parent="1" source="SB1bO-JmTnspfeFLnjL6-31">
          <mxGeometry relative="1" as="geometry">
            <mxPoint x="174" y="1100" as="targetPoint" />
            <Array as="points">
              <mxPoint x="174" y="680" />
              <mxPoint x="404" y="680" />
              <mxPoint x="404" y="1100" />
            </Array>
          </mxGeometry>
        </mxCell>
        <mxCell id="SB1bO-JmTnspfeFLnjL6-31" value="Вывод:&lt;br&gt;&lt;div&gt;Превышено кол-во элементов&lt;br&gt;&lt;/div&gt;" style="shape=parallelogram;perimeter=parallelogramPerimeter;whiteSpace=wrap;html=1;fixedSize=1;" vertex="1" parent="1">
          <mxGeometry x="124" y="610" width="100" height="50" as="geometry" />
        </mxCell>
        <mxCell id="SB1bO-JmTnspfeFLnjL6-50" style="edgeStyle=orthogonalEdgeStyle;rounded=0;orthogonalLoop=1;jettySize=auto;html=1;exitX=1;exitY=0.5;exitDx=0;exitDy=0;entryX=0.5;entryY=0;entryDx=0;entryDy=0;" edge="1" parent="1" source="SB1bO-JmTnspfeFLnjL6-33" target="SB1bO-JmTnspfeFLnjL6-39">
          <mxGeometry relative="1" as="geometry" />
        </mxCell>
        <mxCell id="SB1bO-JmTnspfeFLnjL6-52" style="edgeStyle=orthogonalEdgeStyle;rounded=0;orthogonalLoop=1;jettySize=auto;html=1;exitX=0.5;exitY=1;exitDx=0;exitDy=0;entryX=0.5;entryY=0;entryDx=0;entryDy=0;" edge="1" parent="1" source="SB1bO-JmTnspfeFLnjL6-33" target="SB1bO-JmTnspfeFLnjL6-51">
          <mxGeometry relative="1" as="geometry" />
        </mxCell>
        <mxCell id="SB1bO-JmTnspfeFLnjL6-33" value="posarr ≥ 0 и posarr &amp;lt; n-1" style="rhombus;whiteSpace=wrap;html=1;" vertex="1" parent="1">
          <mxGeometry x="4" y="670" width="100" height="60" as="geometry" />
        </mxCell>
        <mxCell id="SB1bO-JmTnspfeFLnjL6-34" value="да" style="text;html=1;strokeColor=none;fillColor=none;align=center;verticalAlign=middle;whiteSpace=wrap;rounded=0;" vertex="1" parent="1">
          <mxGeometry x="77" y="670" width="60" height="30" as="geometry" />
        </mxCell>
        <mxCell id="SB1bO-JmTnspfeFLnjL6-35" value="нет" style="text;html=1;strokeColor=none;fillColor=none;align=center;verticalAlign=middle;whiteSpace=wrap;rounded=0;" vertex="1" parent="1">
          <mxGeometry x="44" y="720" width="60" height="30" as="geometry" />
        </mxCell>
        <mxCell id="SB1bO-JmTnspfeFLnjL6-37" style="edgeStyle=orthogonalEdgeStyle;rounded=0;orthogonalLoop=1;jettySize=auto;html=1;exitX=0.5;exitY=1;exitDx=0;exitDy=0;exitPerimeter=0;entryX=0.5;entryY=0;entryDx=0;entryDy=0;" edge="1" parent="1" source="SB1bO-JmTnspfeFLnjL6-38" target="SB1bO-JmTnspfeFLnjL6-42">
          <mxGeometry relative="1" as="geometry" />
        </mxCell>
        <mxCell id="SB1bO-JmTnspfeFLnjL6-38" value="цикл 2&lt;div&gt;i = posarr+1&lt;/div&gt;" style="strokeWidth=2;html=1;shape=mxgraph.flowchart.loop_limit;whiteSpace=wrap;" vertex="1" parent="1">
          <mxGeometry x="124" y="820" width="100" height="50" as="geometry" />
        </mxCell>
        <mxCell id="SB1bO-JmTnspfeFLnjL6-39" value="i = n-2" style="rounded=0;whiteSpace=wrap;html=1;" vertex="1" parent="1">
          <mxGeometry x="124" y="750" width="100" height="50" as="geometry" />
        </mxCell>
        <mxCell id="SB1bO-JmTnspfeFLnjL6-40" style="edgeStyle=orthogonalEdgeStyle;rounded=0;orthogonalLoop=1;jettySize=auto;html=1;exitX=0.5;exitY=1;exitDx=0;exitDy=0;entryX=0.5;entryY=0;entryDx=0;entryDy=0;entryPerimeter=0;" edge="1" parent="1" source="SB1bO-JmTnspfeFLnjL6-39" target="SB1bO-JmTnspfeFLnjL6-38">
          <mxGeometry relative="1" as="geometry" />
        </mxCell>
        <mxCell id="SB1bO-JmTnspfeFLnjL6-42" value="A[i+1] = A[i]&lt;div&gt;i = i - 1&lt;/div&gt;" style="rounded=0;whiteSpace=wrap;html=1;" vertex="1" parent="1">
          <mxGeometry x="124" y="890" width="100" height="50" as="geometry" />
        </mxCell>
        <mxCell id="SB1bO-JmTnspfeFLnjL6-47" value="" style="strokeWidth=2;html=1;shape=mxgraph.flowchart.annotation_1;align=left;pointerEvents=1;" vertex="1" parent="1">
          <mxGeometry x="244" y="1030" width="20" height="50" as="geometry" />
        </mxCell>
        <mxCell id="SB1bO-JmTnspfeFLnjL6-48" value="" style="endArrow=none;dashed=1;html=1;rounded=0;exitX=1;exitY=0.5;exitDx=0;exitDy=0;entryX=0;entryY=0.5;entryDx=0;entryDy=0;entryPerimeter=0;" edge="1" parent="1" target="SB1bO-JmTnspfeFLnjL6-47">
          <mxGeometry width="50" height="50" relative="1" as="geometry">
            <mxPoint x="224" y="1055" as="sourcePoint" />
            <mxPoint x="434" y="1110" as="targetPoint" />
          </mxGeometry>
        </mxCell>
        <mxCell id="SB1bO-JmTnspfeFLnjL6-49" value="NewNumber - число введённое в подпрограмму" style="text;html=1;align=center;verticalAlign=middle;whiteSpace=wrap;rounded=0;" vertex="1" parent="1">
          <mxGeometry x="244" y="1040" width="110" height="30" as="geometry" />
        </mxCell>
        <mxCell id="SB1bO-JmTnspfeFLnjL6-68" style="edgeStyle=orthogonalEdgeStyle;rounded=0;orthogonalLoop=1;jettySize=auto;html=1;exitX=0.5;exitY=1;exitDx=0;exitDy=0;" edge="1" parent="1" source="SB1bO-JmTnspfeFLnjL6-51">
          <mxGeometry relative="1" as="geometry">
            <mxPoint x="174" y="1100" as="targetPoint" />
            <Array as="points">
              <mxPoint x="54" y="1100" />
            </Array>
          </mxGeometry>
        </mxCell>
        <mxCell id="SB1bO-JmTnspfeFLnjL6-51" value="Вывод:&lt;br&gt;&lt;div&gt;Неверная позиция для вставки&lt;br&gt;&lt;/div&gt;" style="shape=parallelogram;perimeter=parallelogramPerimeter;whiteSpace=wrap;html=1;fixedSize=1;" vertex="1" parent="1">
          <mxGeometry x="4" y="750" width="100" height="50" as="geometry" />
        </mxCell>
        <mxCell id="SB1bO-JmTnspfeFLnjL6-53" value="" style="strokeWidth=2;html=1;shape=mxgraph.flowchart.annotation_1;align=left;pointerEvents=1;" vertex="1" parent="1">
          <mxGeometry x="244" y="820" width="20" height="50" as="geometry" />
        </mxCell>
        <mxCell id="SB1bO-JmTnspfeFLnjL6-54" value="" style="endArrow=none;dashed=1;html=1;rounded=0;exitX=1;exitY=0.5;exitDx=0;exitDy=0;entryX=0;entryY=0.5;entryDx=0;entryDy=0;entryPerimeter=0;" edge="1" parent="1" target="SB1bO-JmTnspfeFLnjL6-53">
          <mxGeometry width="50" height="50" relative="1" as="geometry">
            <mxPoint x="224" y="845" as="sourcePoint" />
            <mxPoint x="434" y="900" as="targetPoint" />
          </mxGeometry>
        </mxCell>
        <mxCell id="SB1bO-JmTnspfeFLnjL6-55" value="posarr - позиция числа ведённого в подпрограмму" style="text;html=1;align=center;verticalAlign=middle;whiteSpace=wrap;rounded=0;" vertex="1" parent="1">
          <mxGeometry x="248" y="830" width="156" height="30" as="geometry" />
        </mxCell>
        <mxCell id="SB1bO-JmTnspfeFLnjL6-61" style="edgeStyle=orthogonalEdgeStyle;rounded=0;orthogonalLoop=1;jettySize=auto;html=1;exitX=0.5;exitY=0;exitDx=0;exitDy=0;exitPerimeter=0;entryX=0.5;entryY=0;entryDx=0;entryDy=0;" edge="1" parent="1" source="SB1bO-JmTnspfeFLnjL6-56" target="SB1bO-JmTnspfeFLnjL6-60">
          <mxGeometry relative="1" as="geometry" />
        </mxCell>
        <mxCell id="SB1bO-JmTnspfeFLnjL6-56" value="" style="strokeWidth=2;html=1;shape=mxgraph.flowchart.loop_limit;whiteSpace=wrap;rotation=-180;" vertex="1" parent="1">
          <mxGeometry x="124" y="960" width="100" height="50" as="geometry" />
        </mxCell>
        <mxCell id="SB1bO-JmTnspfeFLnjL6-57" value="цикл 1" style="text;html=1;strokeColor=none;fillColor=none;align=center;verticalAlign=middle;whiteSpace=wrap;rounded=0;" vertex="1" parent="1">
          <mxGeometry x="144" y="970" width="60" height="30" as="geometry" />
        </mxCell>
        <mxCell id="SB1bO-JmTnspfeFLnjL6-59" style="edgeStyle=orthogonalEdgeStyle;rounded=0;orthogonalLoop=1;jettySize=auto;html=1;exitX=0.5;exitY=1;exitDx=0;exitDy=0;entryX=0.5;entryY=1;entryDx=0;entryDy=0;entryPerimeter=0;" edge="1" parent="1" source="SB1bO-JmTnspfeFLnjL6-42" target="SB1bO-JmTnspfeFLnjL6-56">
          <mxGeometry relative="1" as="geometry" />
        </mxCell>
        <mxCell id="SB1bO-JmTnspfeFLnjL6-63" style="edgeStyle=orthogonalEdgeStyle;rounded=0;orthogonalLoop=1;jettySize=auto;html=1;exitX=0.5;exitY=1;exitDx=0;exitDy=0;entryX=0.5;entryY=0;entryDx=0;entryDy=0;" edge="1" parent="1" source="SB1bO-JmTnspfeFLnjL6-60" target="SB1bO-JmTnspfeFLnjL6-62">
          <mxGeometry relative="1" as="geometry" />
        </mxCell>
        <mxCell id="SB1bO-JmTnspfeFLnjL6-60" value="A[posarr+1] = NewNumber" style="rounded=0;whiteSpace=wrap;html=1;" vertex="1" parent="1">
          <mxGeometry x="124" y="1030" width="100" height="50" as="geometry" />
        </mxCell>
        <mxCell id="SB1bO-JmTnspfeFLnjL6-62" value="конец" style="rounded=1;whiteSpace=wrap;html=1;arcSize=50;" vertex="1" parent="1">
          <mxGeometry x="124" y="1119" width="100" height="50" as="geometry" />
        </mxCell>
        <mxCell id="SB1bO-JmTnspfeFLnjL6-69" style="edgeStyle=orthogonalEdgeStyle;rounded=0;orthogonalLoop=1;jettySize=auto;html=1;exitX=0.5;exitY=1;exitDx=0;exitDy=0;entryX=0.5;entryY=0;entryDx=0;entryDy=0;" edge="1" parent="1" source="SB1bO-JmTnspfeFLnjL6-70" target="SB1bO-JmTnspfeFLnjL6-91">
          <mxGeometry relative="1" as="geometry" />
        </mxCell>
        <mxCell id="SB1bO-JmTnspfeFLnjL6-70" value="начало&lt;div&gt;AddBefore&lt;br&gt;&lt;/div&gt;" style="rounded=1;whiteSpace=wrap;html=1;arcSize=50;" vertex="1" parent="1">
          <mxGeometry x="424" y="20" width="100" height="50" as="geometry" />
        </mxCell>
        <mxCell id="SB1bO-JmTnspfeFLnjL6-71" style="edgeStyle=orthogonalEdgeStyle;rounded=0;orthogonalLoop=1;jettySize=auto;html=1;exitX=0.5;exitY=1;exitDx=0;exitDy=0;exitPerimeter=0;entryX=0.5;entryY=0;entryDx=0;entryDy=0;" edge="1" parent="1" source="SB1bO-JmTnspfeFLnjL6-72" target="SB1bO-JmTnspfeFLnjL6-84">
          <mxGeometry relative="1" as="geometry">
            <mxPoint x="474" y="230" as="targetPoint" />
          </mxGeometry>
        </mxCell>
        <mxCell id="SB1bO-JmTnspfeFLnjL6-72" value="цикл 1&lt;div&gt;i = n-1&lt;/div&gt;" style="strokeWidth=2;html=1;shape=mxgraph.flowchart.loop_limit;whiteSpace=wrap;" vertex="1" parent="1">
          <mxGeometry x="424" y="160" width="100" height="50" as="geometry" />
        </mxCell>
        <mxCell id="SB1bO-JmTnspfeFLnjL6-73" style="edgeStyle=orthogonalEdgeStyle;rounded=0;orthogonalLoop=1;jettySize=auto;html=1;exitX=0.5;exitY=0;exitDx=0;exitDy=0;exitPerimeter=0;entryX=0.5;entryY=0;entryDx=0;entryDy=0;" edge="1" parent="1" source="SB1bO-JmTnspfeFLnjL6-74" target="SB1bO-JmTnspfeFLnjL6-95">
          <mxGeometry relative="1" as="geometry" />
        </mxCell>
        <mxCell id="SB1bO-JmTnspfeFLnjL6-74" value="" style="strokeWidth=2;html=1;shape=mxgraph.flowchart.loop_limit;whiteSpace=wrap;rotation=-180;" vertex="1" parent="1">
          <mxGeometry x="424" y="470" width="100" height="50" as="geometry" />
        </mxCell>
        <mxCell id="SB1bO-JmTnspfeFLnjL6-75" value="цикл 1" style="text;html=1;strokeColor=none;fillColor=none;align=center;verticalAlign=middle;whiteSpace=wrap;rounded=0;" vertex="1" parent="1">
          <mxGeometry x="444" y="480" width="60" height="30" as="geometry" />
        </mxCell>
        <mxCell id="SB1bO-JmTnspfeFLnjL6-76" value="" style="strokeWidth=2;html=1;shape=mxgraph.flowchart.annotation_1;align=left;pointerEvents=1;" vertex="1" parent="1">
          <mxGeometry x="614" y="235" width="20" height="50" as="geometry" />
        </mxCell>
        <mxCell id="SB1bO-JmTnspfeFLnjL6-77" value="" style="endArrow=none;dashed=1;html=1;rounded=0;exitX=1;exitY=0.5;exitDx=0;exitDy=0;entryX=0;entryY=0.5;entryDx=0;entryDy=0;entryPerimeter=0;" edge="1" parent="1" target="SB1bO-JmTnspfeFLnjL6-76">
          <mxGeometry width="50" height="50" relative="1" as="geometry">
            <mxPoint x="594" y="260" as="sourcePoint" />
            <mxPoint x="804" y="315" as="targetPoint" />
          </mxGeometry>
        </mxCell>
        <mxCell id="SB1bO-JmTnspfeFLnjL6-78" value="maxint - максимальное значение integer" style="text;html=1;align=center;verticalAlign=middle;whiteSpace=wrap;rounded=0;" vertex="1" parent="1">
          <mxGeometry x="618" y="245" width="136" height="30" as="geometry" />
        </mxCell>
        <mxCell id="SB1bO-JmTnspfeFLnjL6-79" value="" style="strokeWidth=2;html=1;shape=mxgraph.flowchart.annotation_1;align=left;pointerEvents=1;" vertex="1" parent="1">
          <mxGeometry x="544" y="160" width="20" height="50" as="geometry" />
        </mxCell>
        <mxCell id="SB1bO-JmTnspfeFLnjL6-80" value="" style="endArrow=none;dashed=1;html=1;rounded=0;exitX=1;exitY=0.5;exitDx=0;exitDy=0;entryX=0;entryY=0.5;entryDx=0;entryDy=0;entryPerimeter=0;exitPerimeter=0;" edge="1" parent="1" source="SB1bO-JmTnspfeFLnjL6-72" target="SB1bO-JmTnspfeFLnjL6-79">
          <mxGeometry width="50" height="50" relative="1" as="geometry">
            <mxPoint x="574" y="185" as="sourcePoint" />
            <mxPoint x="674" y="260" as="targetPoint" />
          </mxGeometry>
        </mxCell>
        <mxCell id="SB1bO-JmTnspfeFLnjL6-81" value="n = 10, это константа" style="text;html=1;align=center;verticalAlign=middle;whiteSpace=wrap;rounded=0;" vertex="1" parent="1">
          <mxGeometry x="548" y="170" width="76" height="30" as="geometry" />
        </mxCell>
        <mxCell id="SB1bO-JmTnspfeFLnjL6-82" style="edgeStyle=orthogonalEdgeStyle;rounded=0;orthogonalLoop=1;jettySize=auto;html=1;exitX=1;exitY=0.5;exitDx=0;exitDy=0;entryX=0.5;entryY=0;entryDx=0;entryDy=0;" edge="1" parent="1" source="SB1bO-JmTnspfeFLnjL6-84" target="SB1bO-JmTnspfeFLnjL6-88">
          <mxGeometry relative="1" as="geometry" />
        </mxCell>
        <mxCell id="SB1bO-JmTnspfeFLnjL6-83" style="edgeStyle=orthogonalEdgeStyle;rounded=0;orthogonalLoop=1;jettySize=auto;html=1;exitX=0.5;exitY=1;exitDx=0;exitDy=0;" edge="1" parent="1" source="SB1bO-JmTnspfeFLnjL6-84" target="SB1bO-JmTnspfeFLnjL6-89">
          <mxGeometry relative="1" as="geometry" />
        </mxCell>
        <mxCell id="SB1bO-JmTnspfeFLnjL6-84" value="MaxInt&amp;nbsp;&lt;span style=&quot;font-family: arial, verdana; font-size: 13px; text-align: start; background-color: rgb(255, 255, 255);&quot;&gt;≠&amp;nbsp;&lt;/span&gt;A[i]" style="rhombus;whiteSpace=wrap;html=1;" vertex="1" parent="1">
          <mxGeometry x="424" y="230" width="100" height="60" as="geometry" />
        </mxCell>
        <mxCell id="SB1bO-JmTnspfeFLnjL6-85" value="да" style="text;html=1;strokeColor=none;fillColor=none;align=center;verticalAlign=middle;whiteSpace=wrap;rounded=0;" vertex="1" parent="1">
          <mxGeometry x="500.5" y="230" width="60" height="30" as="geometry" />
        </mxCell>
        <mxCell id="SB1bO-JmTnspfeFLnjL6-86" value="нет" style="text;html=1;strokeColor=none;fillColor=none;align=center;verticalAlign=middle;whiteSpace=wrap;rounded=0;" vertex="1" parent="1">
          <mxGeometry x="464" y="280" width="60" height="30" as="geometry" />
        </mxCell>
        <mxCell id="SB1bO-JmTnspfeFLnjL6-87" style="edgeStyle=orthogonalEdgeStyle;rounded=0;orthogonalLoop=1;jettySize=auto;html=1;exitX=0.5;exitY=1;exitDx=0;exitDy=0;" edge="1" parent="1" source="SB1bO-JmTnspfeFLnjL6-88">
          <mxGeometry relative="1" as="geometry">
            <mxPoint x="474" y="380" as="targetPoint" />
            <Array as="points">
              <mxPoint x="594" y="380" />
            </Array>
          </mxGeometry>
        </mxCell>
        <mxCell id="SB1bO-JmTnspfeFLnjL6-88" value="k=k+1" style="rounded=0;whiteSpace=wrap;html=1;" vertex="1" parent="1">
          <mxGeometry x="544" y="310" width="100" height="50" as="geometry" />
        </mxCell>
        <mxCell id="SB1bO-JmTnspfeFLnjL6-89" value="i = i + 1" style="rounded=0;whiteSpace=wrap;html=1;" vertex="1" parent="1">
          <mxGeometry x="424" y="400" width="100" height="50" as="geometry" />
        </mxCell>
        <mxCell id="SB1bO-JmTnspfeFLnjL6-90" style="edgeStyle=orthogonalEdgeStyle;rounded=0;orthogonalLoop=1;jettySize=auto;html=1;exitX=0.5;exitY=1;exitDx=0;exitDy=0;entryX=0.5;entryY=1;entryDx=0;entryDy=0;entryPerimeter=0;" edge="1" parent="1" source="SB1bO-JmTnspfeFLnjL6-89" target="SB1bO-JmTnspfeFLnjL6-74">
          <mxGeometry relative="1" as="geometry" />
        </mxCell>
        <mxCell id="SB1bO-JmTnspfeFLnjL6-91" value="i = 0" style="rounded=0;whiteSpace=wrap;html=1;" vertex="1" parent="1">
          <mxGeometry x="424" y="90" width="100" height="50" as="geometry" />
        </mxCell>
        <mxCell id="SB1bO-JmTnspfeFLnjL6-92" style="edgeStyle=orthogonalEdgeStyle;rounded=0;orthogonalLoop=1;jettySize=auto;html=1;exitX=0.5;exitY=1;exitDx=0;exitDy=0;entryX=0.5;entryY=0;entryDx=0;entryDy=0;entryPerimeter=0;" edge="1" parent="1" source="SB1bO-JmTnspfeFLnjL6-91" target="SB1bO-JmTnspfeFLnjL6-72">
          <mxGeometry relative="1" as="geometry" />
        </mxCell>
        <mxCell id="SB1bO-JmTnspfeFLnjL6-93" style="edgeStyle=orthogonalEdgeStyle;rounded=0;orthogonalLoop=1;jettySize=auto;html=1;exitX=1;exitY=0.5;exitDx=0;exitDy=0;entryX=0.5;entryY=0;entryDx=0;entryDy=0;" edge="1" parent="1" source="SB1bO-JmTnspfeFLnjL6-95" target="SB1bO-JmTnspfeFLnjL6-99">
          <mxGeometry relative="1" as="geometry" />
        </mxCell>
        <mxCell id="SB1bO-JmTnspfeFLnjL6-94" style="edgeStyle=orthogonalEdgeStyle;rounded=0;orthogonalLoop=1;jettySize=auto;html=1;exitX=0.5;exitY=1;exitDx=0;exitDy=0;entryX=0.5;entryY=0;entryDx=0;entryDy=0;" edge="1" parent="1" source="SB1bO-JmTnspfeFLnjL6-95" target="SB1bO-JmTnspfeFLnjL6-102">
          <mxGeometry relative="1" as="geometry" />
        </mxCell>
        <mxCell id="SB1bO-JmTnspfeFLnjL6-95" value="k = n" style="rhombus;whiteSpace=wrap;html=1;" vertex="1" parent="1">
          <mxGeometry x="424" y="540" width="100" height="60" as="geometry" />
        </mxCell>
        <mxCell id="SB1bO-JmTnspfeFLnjL6-96" value="да" style="text;html=1;strokeColor=none;fillColor=none;align=center;verticalAlign=middle;whiteSpace=wrap;rounded=0;" vertex="1" parent="1">
          <mxGeometry x="497" y="540" width="60" height="30" as="geometry" />
        </mxCell>
        <mxCell id="SB1bO-JmTnspfeFLnjL6-97" value="нет" style="text;html=1;strokeColor=none;fillColor=none;align=center;verticalAlign=middle;whiteSpace=wrap;rounded=0;" vertex="1" parent="1">
          <mxGeometry x="464" y="590" width="60" height="30" as="geometry" />
        </mxCell>
        <mxCell id="SB1bO-JmTnspfeFLnjL6-98" style="edgeStyle=orthogonalEdgeStyle;rounded=0;orthogonalLoop=1;jettySize=auto;html=1;exitX=0.5;exitY=1;exitDx=0;exitDy=0;" edge="1" parent="1" source="SB1bO-JmTnspfeFLnjL6-99">
          <mxGeometry relative="1" as="geometry">
            <mxPoint x="594" y="1100" as="targetPoint" />
            <Array as="points">
              <mxPoint x="594" y="680" />
              <mxPoint x="824" y="680" />
              <mxPoint x="824" y="1100" />
            </Array>
          </mxGeometry>
        </mxCell>
        <mxCell id="SB1bO-JmTnspfeFLnjL6-99" value="Вывод:&lt;br&gt;&lt;div&gt;Превышено кол-во элементов&lt;br&gt;&lt;/div&gt;" style="shape=parallelogram;perimeter=parallelogramPerimeter;whiteSpace=wrap;html=1;fixedSize=1;" vertex="1" parent="1">
          <mxGeometry x="544" y="610" width="100" height="50" as="geometry" />
        </mxCell>
        <mxCell id="SB1bO-JmTnspfeFLnjL6-100" style="edgeStyle=orthogonalEdgeStyle;rounded=0;orthogonalLoop=1;jettySize=auto;html=1;exitX=1;exitY=0.5;exitDx=0;exitDy=0;entryX=0.5;entryY=0;entryDx=0;entryDy=0;" edge="1" parent="1" source="SB1bO-JmTnspfeFLnjL6-102" target="SB1bO-JmTnspfeFLnjL6-107">
          <mxGeometry relative="1" as="geometry" />
        </mxCell>
        <mxCell id="SB1bO-JmTnspfeFLnjL6-101" style="edgeStyle=orthogonalEdgeStyle;rounded=0;orthogonalLoop=1;jettySize=auto;html=1;exitX=0.5;exitY=1;exitDx=0;exitDy=0;entryX=0.5;entryY=0;entryDx=0;entryDy=0;" edge="1" parent="1" source="SB1bO-JmTnspfeFLnjL6-102" target="SB1bO-JmTnspfeFLnjL6-114">
          <mxGeometry relative="1" as="geometry" />
        </mxCell>
        <mxCell id="SB1bO-JmTnspfeFLnjL6-102" value="posarr ≥ 0 и posarr &amp;lt; n" style="rhombus;whiteSpace=wrap;html=1;" vertex="1" parent="1">
          <mxGeometry x="424" y="670" width="100" height="60" as="geometry" />
        </mxCell>
        <mxCell id="SB1bO-JmTnspfeFLnjL6-103" value="да" style="text;html=1;strokeColor=none;fillColor=none;align=center;verticalAlign=middle;whiteSpace=wrap;rounded=0;" vertex="1" parent="1">
          <mxGeometry x="497" y="670" width="60" height="30" as="geometry" />
        </mxCell>
        <mxCell id="SB1bO-JmTnspfeFLnjL6-104" value="нет" style="text;html=1;strokeColor=none;fillColor=none;align=center;verticalAlign=middle;whiteSpace=wrap;rounded=0;" vertex="1" parent="1">
          <mxGeometry x="464" y="720" width="60" height="30" as="geometry" />
        </mxCell>
        <mxCell id="SB1bO-JmTnspfeFLnjL6-105" style="edgeStyle=orthogonalEdgeStyle;rounded=0;orthogonalLoop=1;jettySize=auto;html=1;exitX=0.5;exitY=1;exitDx=0;exitDy=0;exitPerimeter=0;entryX=0.5;entryY=0;entryDx=0;entryDy=0;" edge="1" parent="1" source="SB1bO-JmTnspfeFLnjL6-106" target="SB1bO-JmTnspfeFLnjL6-109">
          <mxGeometry relative="1" as="geometry" />
        </mxCell>
        <mxCell id="SB1bO-JmTnspfeFLnjL6-106" value="цикл 2&lt;div&gt;i = posarr&lt;/div&gt;" style="strokeWidth=2;html=1;shape=mxgraph.flowchart.loop_limit;whiteSpace=wrap;" vertex="1" parent="1">
          <mxGeometry x="544" y="820" width="100" height="50" as="geometry" />
        </mxCell>
        <mxCell id="SB1bO-JmTnspfeFLnjL6-107" value="i = n-2" style="rounded=0;whiteSpace=wrap;html=1;" vertex="1" parent="1">
          <mxGeometry x="544" y="750" width="100" height="50" as="geometry" />
        </mxCell>
        <mxCell id="SB1bO-JmTnspfeFLnjL6-108" style="edgeStyle=orthogonalEdgeStyle;rounded=0;orthogonalLoop=1;jettySize=auto;html=1;exitX=0.5;exitY=1;exitDx=0;exitDy=0;entryX=0.5;entryY=0;entryDx=0;entryDy=0;entryPerimeter=0;" edge="1" parent="1" source="SB1bO-JmTnspfeFLnjL6-107" target="SB1bO-JmTnspfeFLnjL6-106">
          <mxGeometry relative="1" as="geometry" />
        </mxCell>
        <mxCell id="SB1bO-JmTnspfeFLnjL6-109" value="A[i+1] = A[i]&lt;div&gt;i = i - 1&lt;/div&gt;" style="rounded=0;whiteSpace=wrap;html=1;" vertex="1" parent="1">
          <mxGeometry x="544" y="890" width="100" height="50" as="geometry" />
        </mxCell>
        <mxCell id="SB1bO-JmTnspfeFLnjL6-110" value="" style="strokeWidth=2;html=1;shape=mxgraph.flowchart.annotation_1;align=left;pointerEvents=1;" vertex="1" parent="1">
          <mxGeometry x="664" y="1030" width="20" height="50" as="geometry" />
        </mxCell>
        <mxCell id="SB1bO-JmTnspfeFLnjL6-111" value="" style="endArrow=none;dashed=1;html=1;rounded=0;exitX=1;exitY=0.5;exitDx=0;exitDy=0;entryX=0;entryY=0.5;entryDx=0;entryDy=0;entryPerimeter=0;" edge="1" parent="1" target="SB1bO-JmTnspfeFLnjL6-110">
          <mxGeometry width="50" height="50" relative="1" as="geometry">
            <mxPoint x="644" y="1055" as="sourcePoint" />
            <mxPoint x="854" y="1110" as="targetPoint" />
          </mxGeometry>
        </mxCell>
        <mxCell id="SB1bO-JmTnspfeFLnjL6-112" value="NewNumber - число введённое в подпрограмму" style="text;html=1;align=center;verticalAlign=middle;whiteSpace=wrap;rounded=0;" vertex="1" parent="1">
          <mxGeometry x="664" y="1040" width="110" height="30" as="geometry" />
        </mxCell>
        <mxCell id="SB1bO-JmTnspfeFLnjL6-113" style="edgeStyle=orthogonalEdgeStyle;rounded=0;orthogonalLoop=1;jettySize=auto;html=1;exitX=0.5;exitY=1;exitDx=0;exitDy=0;" edge="1" parent="1" source="SB1bO-JmTnspfeFLnjL6-114">
          <mxGeometry relative="1" as="geometry">
            <mxPoint x="594" y="1100" as="targetPoint" />
            <Array as="points">
              <mxPoint x="474" y="1100" />
            </Array>
          </mxGeometry>
        </mxCell>
        <mxCell id="SB1bO-JmTnspfeFLnjL6-114" value="Вывод:&lt;br&gt;&lt;div&gt;Неверная позиция для вставки&lt;br&gt;&lt;/div&gt;" style="shape=parallelogram;perimeter=parallelogramPerimeter;whiteSpace=wrap;html=1;fixedSize=1;" vertex="1" parent="1">
          <mxGeometry x="424" y="750" width="100" height="50" as="geometry" />
        </mxCell>
        <mxCell id="SB1bO-JmTnspfeFLnjL6-115" value="" style="strokeWidth=2;html=1;shape=mxgraph.flowchart.annotation_1;align=left;pointerEvents=1;" vertex="1" parent="1">
          <mxGeometry x="664" y="820" width="20" height="50" as="geometry" />
        </mxCell>
        <mxCell id="SB1bO-JmTnspfeFLnjL6-116" value="" style="endArrow=none;dashed=1;html=1;rounded=0;exitX=1;exitY=0.5;exitDx=0;exitDy=0;entryX=0;entryY=0.5;entryDx=0;entryDy=0;entryPerimeter=0;" edge="1" parent="1" target="SB1bO-JmTnspfeFLnjL6-115">
          <mxGeometry width="50" height="50" relative="1" as="geometry">
            <mxPoint x="644" y="845" as="sourcePoint" />
            <mxPoint x="854" y="900" as="targetPoint" />
          </mxGeometry>
        </mxCell>
        <mxCell id="SB1bO-JmTnspfeFLnjL6-117" value="posarr - позиция числа ведённого в подпрограмму" style="text;html=1;align=center;verticalAlign=middle;whiteSpace=wrap;rounded=0;" vertex="1" parent="1">
          <mxGeometry x="668" y="830" width="156" height="30" as="geometry" />
        </mxCell>
        <mxCell id="SB1bO-JmTnspfeFLnjL6-118" style="edgeStyle=orthogonalEdgeStyle;rounded=0;orthogonalLoop=1;jettySize=auto;html=1;exitX=0.5;exitY=0;exitDx=0;exitDy=0;exitPerimeter=0;entryX=0.5;entryY=0;entryDx=0;entryDy=0;" edge="1" parent="1" source="SB1bO-JmTnspfeFLnjL6-119" target="SB1bO-JmTnspfeFLnjL6-123">
          <mxGeometry relative="1" as="geometry" />
        </mxCell>
        <mxCell id="SB1bO-JmTnspfeFLnjL6-119" value="" style="strokeWidth=2;html=1;shape=mxgraph.flowchart.loop_limit;whiteSpace=wrap;rotation=-180;" vertex="1" parent="1">
          <mxGeometry x="544" y="960" width="100" height="50" as="geometry" />
        </mxCell>
        <mxCell id="SB1bO-JmTnspfeFLnjL6-120" value="цикл 1" style="text;html=1;strokeColor=none;fillColor=none;align=center;verticalAlign=middle;whiteSpace=wrap;rounded=0;" vertex="1" parent="1">
          <mxGeometry x="564" y="970" width="60" height="30" as="geometry" />
        </mxCell>
        <mxCell id="SB1bO-JmTnspfeFLnjL6-121" style="edgeStyle=orthogonalEdgeStyle;rounded=0;orthogonalLoop=1;jettySize=auto;html=1;exitX=0.5;exitY=1;exitDx=0;exitDy=0;entryX=0.5;entryY=1;entryDx=0;entryDy=0;entryPerimeter=0;" edge="1" parent="1" source="SB1bO-JmTnspfeFLnjL6-109" target="SB1bO-JmTnspfeFLnjL6-119">
          <mxGeometry relative="1" as="geometry" />
        </mxCell>
        <mxCell id="SB1bO-JmTnspfeFLnjL6-122" style="edgeStyle=orthogonalEdgeStyle;rounded=0;orthogonalLoop=1;jettySize=auto;html=1;exitX=0.5;exitY=1;exitDx=0;exitDy=0;entryX=0.5;entryY=0;entryDx=0;entryDy=0;" edge="1" parent="1" source="SB1bO-JmTnspfeFLnjL6-123" target="SB1bO-JmTnspfeFLnjL6-124">
          <mxGeometry relative="1" as="geometry" />
        </mxCell>
        <mxCell id="SB1bO-JmTnspfeFLnjL6-123" value="A[posarr] = NewNumber" style="rounded=0;whiteSpace=wrap;html=1;" vertex="1" parent="1">
          <mxGeometry x="544" y="1030" width="100" height="50" as="geometry" />
        </mxCell>
        <mxCell id="SB1bO-JmTnspfeFLnjL6-124" value="конец" style="rounded=1;whiteSpace=wrap;html=1;arcSize=50;" vertex="1" parent="1">
          <mxGeometry x="544" y="1119" width="100" height="50" as="geometry" />
        </mxCell>
      </root>
    </mxGraphModel>
  </diagram>
</mxfile>
